<svg width="61" height="66" viewBox="0 0 61 66" fill="none" xmlns="http://www.w3.org/2000/svg">
<g clip-path="url(#clip0_580_338)">
<path d="M56.4198 52.7473C55.9675 56.1092 53.705 59.0183 50.5377 60.3111C48.9861 60.9568 47.3057 61.1513 45.6247 60.9568C44.0089 60.7632 42.3927 60.2459 40.7122 59.2773C38.3849 57.983 36.0578 55.9801 33.343 53.0063C37.6096 47.7704 40.1945 42.9868 41.1646 38.7212C41.6172 36.717 41.6816 34.9069 41.488 33.226C41.2297 31.6102 40.6478 30.1229 39.7424 28.8303C37.7385 25.9217 34.3775 24.2408 30.6282 24.2408C26.879 24.2408 23.5178 25.9864 21.5139 28.8303C20.6085 30.1231 20.0275 31.6102 19.7685 33.226C19.5102 34.9069 19.5747 36.7815 20.0919 38.7214C21.0613 42.9866 23.7114 47.8351 27.9135 53.0701C25.2632 56.0445 22.8714 58.0482 20.544 59.3412C18.8636 60.3111 17.2473 60.8283 15.6315 61.0215C13.9658 61.2075 12.2799 60.9859 10.7188 60.3758C7.55122 59.083 5.28926 56.173 4.83645 52.8118C4.64286 51.1962 4.772 49.5805 5.4184 47.7704C5.612 47.1235 5.93567 46.4783 6.2584 45.702C6.71122 44.6682 7.22848 43.5685 7.74505 42.4693L7.8102 42.3408C12.2699 32.7087 17.0537 22.8835 22.0311 13.317L22.225 12.9284C22.7422 11.9598 23.2588 10.9259 23.7765 9.95585C24.2933 8.92132 24.875 7.95147 25.5859 7.11054C26.9434 5.55897 28.7535 4.71874 30.7574 4.71874C32.7613 4.71874 34.5711 5.55897 35.9286 7.11077C36.6397 7.95147 37.2215 8.92132 37.7387 9.95608C38.256 10.9259 38.7725 11.9598 39.2898 12.9284L39.4843 13.317C44.3966 22.948 49.1804 32.7732 53.6406 42.4053V42.4693C54.1579 43.5038 54.61 44.6682 55.1272 45.702C55.4507 46.4783 55.7736 47.1233 55.9672 47.7704C56.4845 49.4508 56.6783 51.0676 56.42 52.7473H56.4198ZM30.6282 49.7089C27.1379 45.3139 24.875 41.1765 24.0995 37.6869C23.7768 36.1998 23.7114 34.9069 23.9059 33.7433C24.0348 32.7087 24.4232 31.8033 24.9395 31.0271C26.1679 29.2833 28.2362 28.1825 30.6282 28.1825C33.02 28.1825 35.1531 29.2177 36.3165 31.0271C36.8333 31.8033 37.2214 32.7087 37.3506 33.7433C37.5444 34.9069 37.4797 36.2642 37.1568 37.6869C36.3812 41.1125 34.1186 45.2494 30.6282 49.7089ZM59.7812 46.348C59.4582 45.5722 59.1348 44.7322 58.8118 44.0211C58.2946 42.8581 57.7773 41.7584 57.3247 40.7239L57.26 40.6599C52.8004 30.9631 48.0165 21.1379 42.9744 11.4432L42.7808 11.0541C42.2636 10.0845 41.7463 9.04999 41.2297 8.01593C40.5829 6.85179 39.9362 5.62483 38.9024 4.46046C36.8331 1.87483 33.8603 0.452881 30.6925 0.452881C27.4604 0.452881 24.5518 1.87483 22.4183 4.33179C21.4492 5.49499 20.7381 6.72311 20.0917 7.88749C19.5744 8.92132 19.0572 9.95585 18.5401 10.9259L18.3463 11.3126C13.3693 21.0087 8.52106 30.8347 4.06067 40.5308L3.99622 40.6599C3.5434 41.6937 3.02614 42.7923 2.50887 43.9566C2.16306 44.7227 1.83988 45.4989 1.53973 46.284C0.69903 48.6751 0.440749 50.938 0.763717 53.2646C1.47528 58.1129 4.70731 62.1858 9.16747 63.9952C10.8477 64.7068 12.5931 65.0298 14.4034 65.0298C14.9204 65.0298 15.5668 64.9651 16.0841 64.8999C18.2169 64.6409 20.4147 63.9312 22.5475 62.7024C25.1982 61.2158 27.7194 59.083 30.5633 55.9801C33.4072 59.083 35.9931 61.216 38.5787 62.7024C40.7122 63.9312 42.9097 64.6409 45.0428 64.8999C45.56 64.9651 46.2065 65.0298 46.7235 65.0298C48.5336 65.0298 50.3432 64.7068 51.9594 63.9952C56.4843 62.1858 59.6516 58.0484 60.3627 53.2646C60.88 51.0017 60.621 48.7405 59.781 46.3477L59.7812 46.348Z" fill="#E0565B"/>
</g>
<defs>
<clipPath id="clip0_580_338">
<rect width="60" height="64.6875" fill="white" transform="translate(0.629395 0.452881)"/>
</clipPath>
</defs>
</svg>
