<svg width="73" height="61" viewBox="0 0 73 61" fill="none" xmlns="http://www.w3.org/2000/svg">
<g clip-path="url(#clip0_580_334)">
<path d="M36.6578 0.796631C17.3226 0.796631 2.17445 25.3966 0.741211 46.1741C6.80882 56.7045 21.4406 60.6628 36.6584 60.6628C51.875 60.6628 66.5077 56.7045 72.5722 46.1738C71.1387 25.3966 55.9925 0.796631 36.6581 0.796631" fill="#B6DEFF"/>
<path d="M67.5195 41.2249C67.5195 41.2249 63.2491 31.9922 58.9085 26.6057C54.5649 21.217 49.2604 15.3494 46.124 15.3494C42.9894 15.3494 34.2266 30.8643 30.2066 30.8643C26.1857 30.8643 24.0961 23.8311 19.1528 23.8311C14.2074 23.8311 6.35051 40.7913 6.35051 40.7913L5.81812 43.6665C5.81812 43.6665 8.54769 55.7682 37.1037 55.7682C65.6609 55.7682 67.9432 43.8651 67.9432 43.8651L67.5198 41.2246" fill="#66CC66"/>
<path d="M30.6543 37.4855C26.2194 37.4855 23.9458 33.1097 22.7132 30.4086C21.6047 27.9753 21.4129 24.1336 18.2678 24.026C18.5768 23.9035 18.8743 23.8311 19.1532 23.8311C24.0966 23.8311 26.1861 30.8643 30.207 30.8643C34.227 30.8643 42.9898 15.3491 46.1244 15.3491C46.7151 15.3491 47.3805 15.5576 48.1025 15.9283C47.5684 15.8579 46.8836 15.9069 46.356 16.4362C45.3427 17.4497 36.1447 37.4855 30.6543 37.4855Z" fill="#17AD49"/>
</g>
<defs>
<clipPath id="clip0_580_334">
<rect width="72.1127" height="60" fill="white" transform="translate(0.516846 0.796631)"/>
</clipPath>
</defs>
</svg>
