<svg width="151" height="61" viewBox="0 0 151 61" fill="none" xmlns="http://www.w3.org/2000/svg">
<g clip-path="url(#clip0_580_340)">
<path d="M0.629395 0.796631V4.8977H29.7982V0.796631H0.629395ZM33.9309 0.796631V4.8977H75.4977C75.4977 4.8977 71.2517 0.796631 65.6284 0.796631H33.9309ZM83.6518 0.796631V4.8977H108.799L107.306 0.796631H83.6518ZM126.828 0.796631L125.336 4.8977H150.255V0.796631H126.828ZM0.629395 8.77224V12.8733H29.7982V8.77224H0.629395ZM33.9309 8.77809V12.8733H80.3211C80.3211 12.8733 79.7793 9.71702 78.8343 8.77809H33.9309ZM83.6518 8.77809V12.8733H111.556L110.175 8.77809H83.6518ZM123.843 8.77809L122.462 12.8733H150.255V8.77809H123.843ZM9.01183 16.7478V20.8542H21.644V16.7478H9.01183ZM42.3133 16.7478V20.8542H54.9455V16.7478H42.3133ZM67.2323 16.7478V20.8542H79.8645C79.8645 20.8542 80.6665 18.6854 80.6665 16.7476H67.2323V16.7478ZM92.0343 16.7478V20.8542H114.43L112.938 16.7476H92.0343V16.7478ZM121.092 16.7478L119.593 20.8545H142.101V16.7478H121.092ZM9.01183 24.7293V28.8298H21.644V24.7293H9.01183ZM42.3133 24.7293V28.8298H74.5787C74.5787 28.8298 77.2778 26.7254 78.1377 24.7287H42.3133V24.7293ZM92.0343 24.7293V28.8298H104.666V26.5469L105.468 28.8298H128.608L129.468 26.5469V28.8298H142.101V24.7293H118.387L117.129 28.2032L115.865 24.7293H92.0343ZM9.01183 32.7043V36.8054H21.644V32.7043H9.01183ZM42.3133 32.7043V36.8054H78.1377C77.2775 34.8152 74.5787 32.7043 74.5787 32.7043H42.3133ZM92.0343 32.7043V36.8054H104.666V32.7043H92.0343ZM106.961 32.7043L108.489 36.8054H125.839L127.291 32.7043H106.961ZM129.468 32.7043V36.8054H142.101V32.7043H129.468ZM9.01183 40.6799V44.781H21.644V40.6799H9.01183ZM42.3133 40.6799V44.781H54.9455V40.6799H42.3133ZM67.2323 40.6799V44.781H80.6665C80.6665 42.8455 79.8645 40.6799 79.8645 40.6799H67.2323ZM92.0343 40.6799V44.781H104.666V40.6799H92.0343ZM109.829 40.6799L111.31 44.781H122.942L124.434 40.6799H109.829ZM129.468 40.6799V44.781H142.101V40.6799H129.468ZM0.857687 48.6558V52.7625H30.0265V48.6556H0.857687V48.6558ZM33.9309 48.6558V52.7625H78.8343C79.7793 51.8221 80.3211 48.6556 80.3211 48.6556H33.9309V48.6558ZM83.8801 48.6558V52.7625H104.666V48.6556H83.8801V48.6558ZM112.704 48.6558L114.225 52.7625H120.144L121.572 48.6556H112.704V48.6558ZM129.468 48.6558V52.7625H150.483V48.6556H129.468V48.6558ZM0.857687 56.637V60.7381H30.0265V56.637H0.857687ZM33.9309 56.637V60.7319H65.6284C71.2517 60.7319 75.4977 56.6367 75.4977 56.6367H33.9309V56.637ZM83.8801 56.637V60.7381H104.666V56.637H83.8801ZM115.589 56.637L117.053 60.7261L117.305 60.7319L118.791 56.6367H115.589V56.637ZM129.468 56.637V60.7381H150.483V56.637H129.468Z" fill="#1F70C1"/>
</g>
<defs>
<clipPath id="clip0_580_340">
<rect width="149.854" height="60" fill="white" transform="translate(0.629395 0.796631)"/>
</clipPath>
</defs>
</svg>
