<svg width="61" height="62" viewBox="0 0 61 62" fill="none" xmlns="http://www.w3.org/2000/svg">
<g clip-path="url(#clip0_580_318)">
<path opacity="0.5" d="M30.4448 9.08577V26.3311L45.409 17.6906V0.445068L30.4448 9.08577V9.08577Z" fill="#13A049"/>
<path opacity="0.5" d="M30.4449 9.08577L15.481 0.445068V17.7265L30.4449 26.3672V9.08577Z" fill="#A2CC39"/>
<path opacity="0.9" d="M45.409 0.445068L30.4449 9.08577L15.481 0.445068L0.516846 9.08577L30.4449 26.3672L60.3551 9.08577L45.409 0.445068Z" fill="url(#paint0_linear_580_318)"/>
<path d="M30.4449 26.3671L0.516846 9.08569V26.3671L15.481 35.0078V52.2714L30.4449 60.9121L45.409 52.2714V35.0078L60.3551 26.3671V9.08569L30.4449 26.3671Z" fill="url(#paint1_linear_580_318)"/>
<path d="M30.4448 26.3671V60.9121L45.409 52.2714V35.0078L60.355 26.3671V9.08569L30.4448 26.3671Z" fill="url(#paint2_linear_580_318)"/>
<path opacity="0.05" d="M30.4448 43.6309V60.9123L45.409 52.2716L30.4448 43.6309V43.6309Z" fill="#231F20"/>
<path opacity="0.1" d="M30.4449 60.9479V43.6665L15.481 52.3072L30.4449 60.9479Z" fill="#231F20"/>
<path opacity="0.05" d="M15.481 17.7266L0.516846 26.3673L15.481 35.008L30.4449 26.3673L15.481 17.7266V17.7266Z" fill="#231F20"/>
<path opacity="0.05" d="M45.409 17.7266L30.4448 26.3673L45.409 35.008L60.355 26.3673L45.409 17.7266V17.7266Z" fill="#231F20"/>
</g>
<defs>
<linearGradient id="paint0_linear_580_318" x1="60.3623" y1="13.4038" x2="0.516846" y2="13.4038" gradientUnits="userSpaceOnUse">
<stop stop-color="#37BDA6"/>
<stop offset="1" stop-color="#8AD3B8"/>
</linearGradient>
<linearGradient id="paint1_linear_580_318" x1="60.3623" y1="34.9979" x2="0.516846" y2="34.9979" gradientUnits="userSpaceOnUse">
<stop offset="0.5" stop-color="#4BB6AD"/>
<stop offset="1" stop-color="#78BBC1"/>
</linearGradient>
<linearGradient id="paint2_linear_580_318" x1="30.4394" y1="34.9979" x2="60.3619" y2="34.9979" gradientUnits="userSpaceOnUse">
<stop stop-color="#4379A7"/>
<stop offset="1" stop-color="#7CC9B8"/>
</linearGradient>
<clipPath id="clip0_580_318">
<rect width="60" height="60.7031" fill="white" transform="translate(0.516846 0.445068)"/>
</clipPath>
</defs>
</svg>
