<svg width="61" height="72" viewBox="0 0 61 72" fill="none" xmlns="http://www.w3.org/2000/svg">
<g clip-path="url(#clip0_580_328)">
<path d="M18.8893 0.724216C18.5458 0.726428 18.2083 0.814146 17.9072 0.97945C16.9186 1.52742 16.5561 2.7975 17.1038 3.78539L19.3358 7.8157C13.9583 11.1427 10.395 16.8258 10.395 23.3121V24.5173C9.36216 23.329 7.84411 22.5787 6.14794 22.5787C3.04013 22.5787 0.516846 25.102 0.516846 28.2096V45.5555C0.516846 48.6628 3.04036 51.1863 6.14794 51.1863C7.84411 51.1863 9.36216 50.4359 10.3948 49.2476V51.6773C10.3948 54.9532 13.0754 57.6335 16.3512 57.6335H17.8625V65.3498C17.8625 68.4577 20.386 70.9809 23.4936 70.9809C26.6011 70.9809 29.1244 68.4574 29.1244 65.3498V57.6335H31.7391V65.3498C31.7391 68.4577 34.2626 70.9809 37.3702 70.9809C40.4778 70.9809 43.0011 68.4574 43.0011 65.3498V57.6335H44.5125C47.7882 57.6335 50.4687 54.9532 50.4687 51.6773V49.2476C51.5014 50.4359 53.0197 51.1863 54.7158 51.1863C57.8234 51.1863 60.3467 48.6628 60.3467 45.5555V28.2096C60.3467 25.102 57.8234 22.5787 54.7158 22.5787C53.0197 22.5787 51.5014 23.329 50.4687 24.5173V23.516V23.4586C50.4692 23.3977 50.4687 23.3489 50.4687 23.3121C50.4687 16.827 46.8973 11.1495 41.5217 7.82226L43.76 3.78539C44.3075 2.7975 43.9451 1.52742 42.9565 0.97945C42.6555 0.814146 42.318 0.726428 41.9745 0.724216C41.2444 0.717185 40.5279 1.10203 40.1506 1.78289L37.8101 6.01101C35.5217 5.16656 33.0317 4.70367 30.432 4.70367C27.8347 4.70367 25.34 5.16164 23.0534 6.00445L20.7132 1.78289C20.3356 1.10203 19.6193 0.717653 18.8893 0.724216Z" fill="white"/>
<path d="M6.14803 24.0457C3.82912 24.0457 1.98389 25.8909 1.98389 28.2098V45.5557C1.98389 47.8746 3.82912 49.7198 6.14803 49.7198C8.46693 49.7198 10.3124 47.8746 10.3124 45.5557V28.2098C10.3124 25.8909 8.46693 24.0457 6.14803 24.0457ZM54.7162 24.0457C52.397 24.0457 50.5518 25.8909 50.5518 28.2098V45.5557C50.5518 47.8746 52.397 49.7198 54.7162 49.7198C57.0351 49.7198 58.8803 47.8746 58.8803 45.5557V28.2098C58.8803 25.8909 57.0351 24.0457 54.7162 24.0457Z" fill="#A4C639"/>
<path d="M23.494 43.8398C21.1751 43.8398 19.3296 45.6851 19.3296 48.0042V65.3498C19.3296 67.6688 21.1751 69.514 23.494 69.514C25.8129 69.514 27.6581 67.6688 27.6581 65.3498V48.0042C27.6581 45.6851 25.8129 43.8398 23.494 43.8398ZM37.3706 43.8398C35.0515 43.8398 33.2062 45.6851 33.2062 48.0042V65.3498C33.2062 67.6688 35.0515 69.514 37.3706 69.514C39.6895 69.514 41.5347 67.6688 41.5347 65.3498V48.0042C41.5347 45.6851 39.6895 43.8398 37.3706 43.8398Z" fill="#A4C639"/>
<path d="M18.9017 2.19124C18.8032 2.19243 18.7067 2.21873 18.6212 2.26765C18.3242 2.43218 18.2267 2.77343 18.3915 3.07109L21.3252 8.37054C15.6814 11.3073 11.8691 16.888 11.8616 23.293H49.0018C48.9941 16.888 45.182 11.307 39.5382 8.37054L42.4717 3.07132C42.6367 2.77367 42.5389 2.43218 42.242 2.26765C42.1565 2.2187 42.0599 2.1924 41.9614 2.19124C41.7505 2.1889 41.551 2.29437 41.4385 2.49734L38.4667 7.85398C36.0357 6.77585 33.309 6.17046 30.4316 6.17046C27.5542 6.17046 24.8277 6.77562 22.3965 7.85398L19.4246 2.49734C19.3739 2.40331 19.2984 2.32502 19.2062 2.27104C19.114 2.21706 19.0088 2.18945 18.902 2.19124H18.9017ZM11.8616 24.7597V51.6776C11.8603 52.2675 11.9756 52.8519 12.2007 53.3971C12.4259 53.9424 12.7566 54.4378 13.1737 54.8549C13.5908 55.272 14.0863 55.6026 14.6315 55.8278C15.1768 56.0529 15.7611 56.1682 16.351 56.1669H44.5124C45.1023 56.1682 45.6867 56.0529 46.2319 55.8278C46.7772 55.6026 47.2726 55.272 47.6898 54.8548C48.1069 54.4377 48.4376 53.9422 48.6627 53.397C48.8879 52.8517 49.0031 52.2673 49.0018 51.6774V24.7599H11.8616V24.7597Z" fill="#A4C639"/>
<path d="M21.861 13.3958C21.0132 13.3958 20.3113 14.0975 20.3113 14.9452C20.3113 15.7932 21.0132 16.4949 21.861 16.4949C22.7089 16.4949 23.4107 15.7932 23.4107 14.9452C23.4107 14.0975 22.7089 13.3958 21.861 13.3958ZM39.0027 13.3958C38.1547 13.3958 37.453 14.0975 37.453 14.9452C37.453 15.7932 38.1547 16.4949 39.0027 16.4949C39.8504 16.4949 40.5524 15.7932 40.5524 14.9452C40.5524 14.0975 39.8504 13.3958 39.0027 13.3958Z" fill="white"/>
</g>
<defs>
<clipPath id="clip0_580_328">
<rect width="60" height="70.5469" fill="white" transform="translate(0.516846 0.523193)"/>
</clipPath>
</defs>
</svg>
